<?xml version="1.0" ?><!DOCTYPE svg  PUBLIC '-//W3C//DTD SVG 1.1//EN'  'http://www.w3.org/Graphics/SVG/1.1/DTD/svg11.dtd'><svg height="512px" style="enable-background:new 0 0 512 512;" version="1.1" viewBox="0 0 512 512" width="512px" xml:space="preserve" xmlns="http://www.w3.org/2000/svg" xmlns:xlink="http://www.w3.org/1999/xlink"><g id="_x34_34_x2C__3d_x2C__document_x2C__file_x2C__object_x2C__processing"><g><path d="M203.365,235.244l13.69-23.699l-18.688,5.022L203.365,235.244z     M241.72,303.646l-23.686-13.681l5.008,18.702L241.72,303.646z M310.134,265.302L296.439,289l18.692-5.021L310.134,265.302z     M271.778,196.9l23.686,13.68l-5.012-18.702L271.778,196.9z M267.336,278.066l9.005,33.619l11.146-19.271l0.011-0.049l0.014-0.024    l0.024-0.049l0.024-0.026l0.011-0.023l32.161-55.711l-33.607,9.004L267.336,278.066z M260.471,252.413l4.65,17.391l12.719-22.042    L260.471,252.413z M228.942,260.873l-33.607,9.006l19.285,11.131l0.035,0.025h0.039l0.039,0.024l0.024,0.024l0.035,0.025    l0.039,0.025h0.024l36.243,20.928l0.06,0.05l0.063,0.024l19.256,11.133l-9.002-33.62L228.942,260.873z M254.61,253.996    l-17.379,4.65l22.028,12.717L254.61,253.996z M254.238,229.184l4.664,17.366l17.365-4.651L254.238,229.184z M243.019,187.277    l9.005,33.619l32.529,18.775l33.607-9.004l-19.281-11.133h-0.039l-0.034-0.024l-0.028-0.024l-0.035-0.025l-0.039-0.025    l-0.035-0.023l-36.267-20.93l-0.063-0.049l-0.06-0.024L243.019,187.277z M246.149,222.455l-9.005-33.596l-11.069,19.173    l-0.025,0.049l-0.014,0.024l-0.025,0.051l-0.112,0.197l-0.024,0.025l-0.024,0.05l-0.804,1.384l-20.088,34.809l-0.074,0.123    l-0.049,0.074l-11.083,19.197l33.621-9.006L246.149,222.455z M253.038,248.133l-4.664-17.391l-12.715,22.041L253.038,248.133z     M331.58,151.901h68.488L331.58,83.426V151.901z M404.375,157.986h-75.823c-1.681,0-3.042-1.36-3.042-3.043V79.097H109.124v162.06    h14.94c-0.779-1.854-0.927-3.834-0.495-5.688l0.225-0.718c0.643-1.979,1.979-3.76,3.896-4.948    c2.141-1.312,4.612-1.632,6.865-1.088l0.706,0.198c1.979,0.643,3.759,1.979,4.934,3.908c1.808,2.895,3.131,4.898,4.18,6.506    c3.179,4.799,4.776,7.224,4.776,10.91c0,3.686-1.622,6.159-4.85,11.082c-0.941,1.41-2.088,3.166-4.092,6.432l-0.386,0.545    c-1.309,1.807-3.19,3.018-5.243,3.513c-2.277,0.569-4.748,0.247-6.889-1.064c-2.141-1.311-3.551-3.388-4.095-5.64    c-0.457-1.88-0.319-3.858,0.47-5.715h-14.94v162.037h295.251V259.389h-16.439c0.794,1.856,0.928,3.835,0.471,5.715    c-0.544,2.252-1.955,4.329-4.096,5.64c-2.137,1.312-4.611,1.634-6.889,1.064c-2.039-0.495-3.945-1.706-5.258-3.513l-0.371-0.545    c-2.001-3.266-3.152-5.021-4.093-6.432c-3.229-4.923-4.851-7.396-4.851-11.082c0-3.687,1.598-6.111,4.777-10.91    c1.049-1.607,2.372-3.611,4.18-6.506c1.176-1.93,2.955-3.266,4.934-3.908l0.706-0.198c2.253-0.544,4.728-0.224,6.864,1.088    c1.92,1.188,3.254,2.969,3.896,4.948l0.225,0.718c0.432,1.854,0.283,3.834-0.496,5.688h16.439V157.986z M29.044,253.328    c-1.681,0-3.042-1.385-3.042-3.043c0-1.682,1.362-3.043,3.042-3.043h105.77l-4.959-8.064c-0.881-1.434-0.435-3.315,1-4.18    c1.421-0.893,3.303-0.446,4.18,0.989c10.662,17.366,10.75,11.107,0,28.572c-0.877,1.435-2.759,1.88-4.18,0.989    c-1.435-0.866-1.881-2.746-1-4.182l4.959-8.039H29.044z M125.661,53.789c1.67,0,3.043,1.36,3.043,3.018    c0,1.682-1.373,3.043-3.043,3.043H93.215v66.348c0,1.658-1.362,3.043-3.042,3.043c-1.671,0-3.043-1.385-3.043-3.043V56.807    c0-1.657,1.372-3.018,3.043-3.018H125.661z M79.623,444.086c-1.685,0-3.043-1.361-3.043-3.019c0-1.682,1.358-3.043,3.043-3.043    h232.118c1.681,0,3.043,1.361,3.043,3.043c0,1.657-1.362,3.019-3.043,3.019H79.623z M215.546,458.211    c-1.681,0-3.042-1.36-3.042-3.018c0-1.683,1.361-3.043,3.042-3.043h160.626c1.671,0,3.043,1.36,3.043,3.043    c0,1.657-1.372,3.018-3.043,3.018H215.546z M64.297,457.791c-1.67,0-3.042-1.361-3.042-3.043c0-1.683,1.372-3.043,3.042-3.043    h76.121c1.667,0,3.029,1.36,3.029,3.043c0,1.682-1.362,3.043-3.029,3.043H64.297z M406.564,438.024    c1.671,0,3.029,1.361,3.029,3.043c0,1.657-1.358,3.019-3.029,3.019H359.18c-1.686,0-3.047-1.361-3.047-3.019    c0-1.682,1.361-3.043,3.047-3.043H406.564z M482.956,253.328c1.681,0,3.043-1.385,3.043-3.043c0-1.682-1.362-3.043-3.043-3.043    h-0.99h-0.087H377.187l4.959-8.064c0.881-1.434,0.435-3.315-1-4.18c-0.656-0.422-1.411-0.545-2.127-0.422    c-1.19-0.198-2.45,0.322-3.116,1.411l-7.707,12.517l0,0l-0.039,0.074h-0.01l-0.039,0.051l0,0l-0.024,0.049l-0.011,0.024l0,0    l-0.024,0.049h-0.015l-0.023,0.075h-0.015l-0.024,0.049v0.025h-0.011l-0.014,0.024l-0.011,0.024l0,0l0,0l-0.024,0.074h-0.015l0,0    l-0.023,0.05v0.025l0,0l-0.025,0.049l-0.01,0.024l0,0l-0.015,0.049l-0.024,0.075h-0.011v0.024l-0.015,0.051h-0.01l0,0    l-0.014,0.073l0,0l-0.015,0.049l-0.011,0.024l0,0l-0.014,0.051v0.023l0,0l-0.011,0.051l0,0l-0.014,0.024v0.024v0.025l0,0    l-0.011,0.049v0.025l0,0l-0.014,0.024v0.024v0.025v0.025l-0.011,0.023v0.025l0,0v0.049l0,0l-0.015,0.024v0.024v0.025v0.025v0.025    l0,0v0.073v0.024l-0.01,0.074h0.01v0.075v0.024v0.049l0.015,0.148l0,0l0.011,0.074v0.05v0.024l0.014,0.024v0.05l0.011,0.074    l0.024,0.074l0,0v0.025l0.014,0.049l0,0l0.011,0.025l0,0l0.015,0.049l0.014,0.074l0.01,0.025l0.015,0.049l0,0h0.011l0.014,0.074    l0.025,0.051v0.023h0.01l0.025,0.05l0,0v0.024l0,0l0.023,0.049h0.015l0.024,0.075l0,0l0,0l0.024,0.05l0.011,0.024l0,0l0.024,0.05    h0.015l0.023,0.073l0,0h0.015l0.024,0.05v0.025h0.011l0.024,0.049l0,0l0.039,0.05l7.756,12.592    c0.666,1.088,1.926,1.607,3.116,1.41c0.716,0.124,1.471,0,2.127-0.421c1.435-0.866,1.881-2.746,1-4.182l-4.959-8.039h104.692    h0.087H482.956z M239.765,178.421l0.063,0.024l24.527,14.175l27.473-7.396c1.618-0.422,3.278,0.543,3.71,2.15l7.359,27.484    l24.528,14.15l0.175,0.124h0.011l0.049,0.025h0.015l0.049,0.05h0.011l0.126,0.098l0.035,0.025l0.088,0.074l0.024,0.025    c0.197,0.172,0.372,0.346,0.52,0.568l0.024,0.024c0.172,0.272,0.31,0.569,0.396,0.916l0,0c0.108,0.37,0.123,0.767,0.074,1.138    v0.049v0.051l-0.015,0.024v0.024l-0.035,0.148v0.05l-0.014,0.024l-0.084,0.297l-0.014,0.024l-0.015,0.05l-0.011,0.023    l-0.024,0.051v0.024l-0.063,0.099v0.025l-0.024,0.049l-0.011,0.025l-0.038,0.049l-0.073,0.124l-0.039,0.073l-14.137,24.491    l7.359,27.485c0.432,1.633-0.533,3.289-2.15,3.711l-27.487,7.371l-14.111,24.442l-0.024,0.073    c-0.383,0.742-1.053,1.312-1.917,1.534c-0.347,0.099-0.681,0.124-1.027,0.099h-0.025l-0.112-0.023h-0.035h-0.038h-0.035    l-0.039-0.025h-0.073h-0.039l-0.035-0.025h-0.038h-0.035l-0.039-0.024l-0.172-0.05h-0.024l-0.053-0.023h-0.024l-0.049-0.025    h-0.024l-0.05-0.025l-0.01-0.024l-0.127-0.05h-0.011l-0.049-0.024h-0.014l-0.06-0.05l0,0l-0.063-0.023l0,0l-0.063-0.05    l-24.577-14.176l-27.483,7.372c-1.621,0.421-3.278-0.543-3.713-2.152l-7.359-27.484l-24.451-14.125l-0.063-0.025l-0.197-0.123l0,0    c-0.632-0.396-1.141-1.015-1.337-1.806c-0.235-0.841-0.074-1.731,0.372-2.425l0.049-0.049l14.101-24.442l-7.359-27.483    c-0.435-1.633,0.53-3.291,2.151-3.711l27.483-7.373l14.115-24.44c0.358-0.767,1.049-1.387,1.941-1.608    c0.754-0.197,1.52-0.1,2.165,0.222h0.011L239.765,178.421z" style="fill-rule:evenodd;clip-rule:evenodd;"/></g></g><g id="Layer_1"/></svg>