<?xml version="1.0" ?><!DOCTYPE svg  PUBLIC '-//W3C//DTD SVG 1.1//EN'  'http://www.w3.org/Graphics/SVG/1.1/DTD/svg11.dtd'><svg height="512px" style="enable-background:new 0 0 512 512;" version="1.1" viewBox="0 0 512 512" width="512px" xml:space="preserve" xmlns="http://www.w3.org/2000/svg" xmlns:xlink="http://www.w3.org/1999/xlink"><g id="_x34_28_x2C__3d_x2C__dimensional_x2C__machine_x2C__printer_x2C__printing"><g><path d="M400.975,101.596H189.362h-18.26h-0.095h-0.095h-44.955h-0.095h-45.81    v333.062h79.034l9.7-32.59c0.381-1.712,1.934-3.013,3.804-3.013h135.844c1.68,0,3.234,1.078,3.741,2.79l9.763,32.813h79.035    V101.596z M377.83,148.608h-28.563v15.63h28.563V148.608z M305.106,148.608h-201.91v15.63h201.91V148.608z M341.469,139.003    h-28.564v5.612v0.094v23.428v0.096v17.15h28.564v-17.15v-0.096v-23.428v-0.094V139.003z M309.006,131.205h36.361    c2.157,0,3.899,1.774,3.899,3.898v5.707h28.563v-16.074H103.196v16.074h201.91v-5.707    C305.106,132.979,306.849,131.205,309.006,131.205z M261.294,303.98h-57.317h-0.095h-0.097h-43.051v8.623h100.56V303.98z     M387.88,280.838h-6.022h-0.128H269.092v19.148v0.096v16.421v0.095v18.482v0.096v44.984H387.88V280.838z M385.631,273.039h6.148    c2.156,0,3.9,1.744,3.9,3.899v107.122c0,2.155-1.744,3.899-3.9,3.899H265.193c-2.155,0-3.899-1.744-3.899-3.899v-45.081H99.295    c-2.155,0-3.899-1.743-3.899-3.899V168.232v-23.617v-23.777c0-2.156,1.744-3.899,3.899-3.899h282.434    c2.157,0,3.901,1.743,3.901,3.899v23.777v0.094v23.428v0.096V273.039z M318.929,296.975H284.31v28.119h34.619V296.975z     M280.41,289.176h42.418c2.154,0,3.898,1.744,3.898,3.899v35.918c0,2.125-1.744,3.868-3.898,3.868H280.41    c-2.156,0-3.899-1.743-3.899-3.868v-35.918C276.511,290.92,278.254,289.176,280.41,289.176z M205.816,181.039L205.816,181.039    l0.095,0.032l0.095,0.063l40.928,23.65c1.235,0.697,1.934,1.996,1.965,3.36v47.458c0,1.586-0.919,2.916-2.283,3.551    l-38.834,22.413v14.614h53.513v-19.243c0-2.155,1.744-3.899,3.899-3.899H377.83V172.036h-28.563v17.247    c0,2.155-1.742,3.899-3.899,3.899h-36.361c-2.157,0-3.899-1.744-3.899-3.899v-17.247h-201.91v159.146h158.098v-10.779H156.835    c-2.155,0-3.899-1.744-3.899-3.899v-16.421c0-2.156,1.744-3.9,3.899-3.9h43.146V281.6l-39.152-22.604    c-1.235-0.729-1.934-2.029-1.934-3.392l-0.031-47.458c0-1.585,0.951-2.917,2.283-3.551l40.801-23.556l0.063-0.031l0.031-0.031    h0.032l0.032-0.031h0.032l0.063-0.031l0,0l0.032-0.032l0.063-0.032l0,0l0.063-0.031l0,0h0.065l0.032-0.031h0.032l0.063-0.033l0,0    l0.063-0.031h0.032h0.032l0.031-0.031h0.032l0.063-0.031l0,0h0.063h0.033v-0.033h0.063h0.031l0.158-0.031h0.031l0.032-0.031h0.063    l0,0h0.063h0.033l0.032-0.031h0.032h0.031h0.063l0,0h0.063h0.032h0.031h0.063l0,0h0.063h0.032h0.033h0.063h0.063h0.031h0.032    h0.126l0,0h0.032h0.031h0.063h0.065l0.031,0.031h0.032h0.063l0,0h0.063h0.031l0.032,0.031h0.032h0.031h0.032l0.032,0.031h0.032    h0.064l0,0l0.063,0.033h0.032h0.031l0.063,0.031l0,0h0.063l0.032,0.031h0.031l0.063,0.031h0.031l0.128,0.064h0.031l0.063,0.031    h0.032l0.031,0.032l0.032,0.032h0.032l0.063,0.031l0,0l0.063,0.031h0.034v0.031L205.816,181.039z M217.038,209.35l-13.155-18.292    l-13.125,18.292v45.049l9.225,12.871v-35.379c0-2.156,1.744-3.9,3.901-3.9c2.155,0,3.899,1.744,3.899,3.9v35.379l9.256-12.871    V209.35z M190.25,267.016l-6.531-9.131c-0.507-0.695-0.76-1.489-0.76-2.281v-47.458c0-0.983,0.349-1.87,0.951-2.567l6.34-8.846    l-23.585,13.633v43.02L190.25,267.016z M217.544,196.764l6.531,9.099c0.507,0.698,0.729,1.489,0.729,2.283l0.033,47.458    c0,0.982-0.349,1.871-0.951,2.568l-6.342,8.813l23.556-13.6v-43.02L217.544,196.764z M129.856,93.796h37.251V43.137    c-12.427,0-24.823,0-37.251,0V93.796z M338.203,314.633c-2.123,0-3.898-1.775-3.898-3.899c0-2.155,1.775-3.899,3.898-3.899h38.043    c2.154,0,3.898,1.744,3.898,3.899c0,2.124-1.744,3.899-3.898,3.899H338.203z M338.203,331.974c-2.123,0-3.898-1.743-3.898-3.899    c0-2.155,1.775-3.899,3.898-3.899h38.043c2.154,0,3.898,1.744,3.898,3.899c0,2.156-1.744,3.899-3.898,3.899H338.203z     M280.696,349.314c-2.125,0-3.901-1.744-3.901-3.898c0-2.156,1.776-3.9,3.901-3.9h95.55c2.154,0,3.898,1.744,3.898,3.9    c0,2.154-1.744,3.898-3.898,3.898H280.696z M280.696,366.688c-2.125,0-3.901-1.775-3.901-3.899c0-2.155,1.776-3.899,3.901-3.899    h95.55c2.154,0,3.898,1.744,3.898,3.899c0,2.124-1.744,3.899-3.898,3.899H280.696z M321.053,85.997    c-2.155,0-3.899-1.743-3.899-3.899c0-2.123,1.744-3.898,3.899-3.898h98.594c2.154,0,3.898,1.775,3.898,3.898v73.042    c0,2.155-1.744,3.899-3.898,3.899c-2.157,0-3.899-1.744-3.899-3.899V85.997H321.053z M43.405,461.984    c-2.155,0-3.899-1.744-3.899-3.899c0-2.125,1.744-3.867,3.899-3.867h343.367c2.154,0,3.898,1.742,3.898,3.867    c0,2.155-1.744,3.899-3.898,3.899H43.405z M244.492,482.876c-2.156,0-3.899-1.744-3.899-3.899c0-2.125,1.743-3.899,3.899-3.899    H482.1c2.123,0,3.899,1.774,3.899,3.899c0,2.155-1.776,3.899-3.899,3.899H244.492z M29.9,482.242c-2.157,0-3.899-1.744-3.899-3.9    c0-2.123,1.742-3.899,3.899-3.899h112.574c2.155,0,3.899,1.776,3.899,3.899c0,2.156-1.744,3.9-3.899,3.9H29.9z M163.018,35.338    h7.989c2.155,0,3.899,1.743,3.899,3.898v54.56h10.462V29.124h-22.35V35.338z" style="fill-rule:evenodd;clip-rule:evenodd;"/></g></g><g id="Layer_1"/></svg>